<svg width="1051" height="1213" viewBox="0 0 1051 1213" fill="none" xmlns="http://www.w3.org/2000/svg">
<path d="M117 170C117 175.804 115.748 181.315 113.5 186.279C107.298 199.973 93.5114 209.5 77.5 209.5C55.6848 209.5 38 191.815 38 170C38 148.185 55.6848 130.5 77.5 130.5C87.6973 130.5 96.9921 134.364 104 140.708C111.984 147.936 117 158.382 117 170Z" fill="#8C52FF"/>
<path d="M104 140.708C111.984 147.936 117 158.382 117 170C117 175.804 115.748 181.315 113.5 186.279C284.791 140.949 373.98 111.879 518 52.5C717.572 134.635 823.197 164.659 1005.5 202.5L1013.5 155.5C808.866 116.674 701.809 79.8038 518 0C390.379 57.2807 303.459 88.3449 104 140.708Z" fill="#8C52FF"/>
<path d="M622 208C622 220.862 615.853 232.288 606.336 239.5C599.711 244.521 591.454 247.5 582.5 247.5C560.685 247.5 543 229.815 543 208C543 186.185 560.685 168.5 582.5 168.5C599.574 168.5 614.117 179.333 619.633 194.5C621.165 198.712 622 203.258 622 208Z" fill="#8C52FF"/>
<path d="M619.633 194.5C621.165 198.712 622 203.258 622 208C622 220.862 615.853 232.288 606.336 239.5C718.021 279.537 771.116 293.323 856.5 309.5C861.009 691.193 733.885 804.055 503.5 1002.5L532.5 1039.5C812.07 815.892 917.583 649.113 902.5 271C797.62 251.579 736.287 235.963 619.633 194.5Z" fill="#8C52FF"/>
<path d="M400 887C400 908.815 382.315 926.5 360.5 926.5C338.685 926.5 321 908.815 321 887C321 883.545 321.444 880.194 322.277 877C326.518 860.745 340.853 848.568 358.186 847.567C358.952 847.522 359.723 847.5 360.5 847.5C382.315 847.5 400 865.185 400 887Z" fill="#8C52FF"/>
<path d="M132 270.5C117.891 557.081 164.64 687.014 322.277 877C326.518 860.745 340.853 848.568 358.186 847.567C216.303 659.014 170.999 543.15 179 310C302.264 282.343 360.052 265.631 446 234L429.5 188.5C322.161 229.149 258.115 248.252 132 270.5Z" fill="#8C52FF"/>
<path d="M556 1173C556 1194.82 538.315 1212.5 516.5 1212.5C494.685 1212.5 477 1194.82 477 1173C477 1172.33 477.017 1171.66 477.05 1171C477.921 1153.53 490.147 1139.04 506.5 1134.78C509.694 1133.94 513.045 1133.5 516.5 1133.5C538.315 1133.5 556 1151.18 556 1173Z" fill="#8C52FF"/>
<path d="M1051 342C1051 356.098 1043.61 368.472 1032.5 375.461C1026.42 379.287 1019.22 381.5 1011.5 381.5C1001.54 381.5 992.447 377.816 985.5 371.737C977.226 364.497 972 353.859 972 342C972 320.185 989.685 302.5 1011.5 302.5C1033.32 302.5 1051 320.185 1051 342Z" fill="#8C52FF"/>
<path d="M1011.5 381.5C1001.54 381.5 992.447 377.816 985.5 371.737C960.205 615.944 904.557 733.297 759.5 921L795 951.5C943.435 763.62 1003.09 642.591 1032.5 375.461C1026.42 379.287 1019.22 381.5 1011.5 381.5Z" fill="#8C52FF"/>
<path d="M506.5 1134.78C173.488 858.378 58.5064 673.261 48.5 261H0C15.5022 716.791 145.703 901.318 477.05 1171C477.921 1153.53 490.147 1139.04 506.5 1134.78Z" fill="#8C52FF"/>
<path fill-rule="evenodd" clip-rule="evenodd" d="M518 289C418.572 332.223 360.294 349.904 253 372C246.993 624.462 301.591 743.496 518 910C717.992 750.715 789.693 640.204 783 372.5C679.946 351.722 621.975 334.86 518 289ZM522.5 732.5C618.045 732.5 695.5 655.045 695.5 559.5C695.5 463.955 618.045 386.5 522.5 386.5C426.955 386.5 349.5 463.955 349.5 559.5C349.5 655.045 426.955 732.5 522.5 732.5Z" fill="#8C52FF"/>
<path d="M514 406.5V465H448.5C465.29 428.793 480.215 416.518 514 406.5Z" fill="#8C52FF"/>
<path d="M532.5 406.5V465H598C581.21 428.793 566.285 416.518 532.5 406.5Z" fill="#8C52FF"/>
<path d="M514 712.5V654H448.5C465.29 690.207 480.215 702.482 514 712.5Z" fill="#8C52FF"/>
<path d="M532.5 712.5V654H598C581.21 690.207 566.285 702.482 532.5 712.5Z" fill="#8C52FF"/>
<path d="M427 465C434.193 447.977 440.294 438.866 453 423C430.252 434.881 418.754 443.459 402.5 465H427Z" fill="#8C52FF"/>
<path d="M619 465C611.807 447.977 605.706 438.866 593 423C615.748 434.881 627.246 443.459 643.5 465H619Z" fill="#8C52FF"/>
<path d="M427 654C434.193 671.023 440.294 680.134 453 696C430.252 684.119 418.754 675.541 402.5 654H427Z" fill="#8C52FF"/>
<path d="M619 654C611.807 671.023 605.706 680.134 593 696C615.748 684.119 627.246 675.541 643.5 654H619Z" fill="#8C52FF"/>
<path d="M390.5 481.5H421C411.597 508.084 409.772 523.354 408.5 550H370C372.568 523.899 376.652 508.949 390.5 481.5Z" fill="#8C52FF"/>
<path d="M439.5 481.5C430.059 511.221 427.844 525.845 427 550H514V481.5H439.5Z" fill="#8C52FF"/>
<path d="M656 481.5H625.5C634.903 508.084 636.728 523.354 638 550H676.5C673.932 523.899 669.848 508.949 656 481.5Z" fill="#8C52FF"/>
<path d="M607 481.5C616.441 511.221 618.656 525.845 619.5 550H532.5V481.5H607Z" fill="#8C52FF"/>
<path d="M390.5 638.403H421C411.597 611.819 409.772 596.548 408.5 569.903H370C372.568 596.003 376.652 610.953 390.5 638.403Z" fill="#8C52FF"/>
<path d="M439.5 638.403C430.059 608.682 427.844 594.058 427 569.903H514V638.403H439.5Z" fill="#8C52FF"/>
<path d="M656 638.403H625.5C634.903 611.819 636.728 596.548 638 569.903H676.5C673.932 596.003 669.848 610.953 656 638.403Z" fill="#8C52FF"/>
<path d="M607 638.403C616.441 608.682 618.656 594.058 619.5 569.903H532.5V638.403H607Z" fill="#8C52FF"/>
</svg>
