<svg width="88" height="88" viewBox="0 0 88 88" fill="none" xmlns="http://www.w3.org/2000/svg">
<path d="M47.4804 49.3441C49.5187 50.8213 51.1191 52.1394 52.2817 53.2981C53.5038 54.4473 54.2916 55.6507 54.6451 56.9079C55.058 58.1558 54.8013 59.4189 53.875 60.6971C52.5478 62.5281 50.9633 63.2239 49.1212 62.7846C47.3136 62.3704 45.0798 61.1993 42.4196 59.2715L38.156 56.1023L34.8537 53.7879C34.0405 55.2009 33.3584 56.2874 32.8076 57.0474C30.0283 60.8822 27.1186 61.6979 24.0785 59.4945C21.5565 57.6667 20.5841 54.8278 21.1612 50.9779C21.7729 47.153 24.232 42.2694 28.5386 36.3273C31.1927 32.6653 34.3188 29.9514 37.9171 28.1856C41.5499 26.445 45.2724 25.744 49.0842 26.0828C52.9212 26.387 56.4288 27.6909 59.6073 29.9944C63.5457 32.8488 66.0458 35.6883 67.1076 38.5129C68.2038 41.3625 67.8758 43.9965 66.1231 46.4148C64.8962 48.1077 63.5427 49.1027 62.0625 49.4C60.6419 49.6878 59.0934 49.4614 57.4171 48.7207C55.8004 47.9705 53.8174 46.7441 51.4681 45.0415C49.568 43.6644 47.6516 42.8551 45.7189 42.6136C43.8207 42.3971 42.3142 42.9125 41.1996 44.1597L40.8097 44.5885C41.2493 44.8544 41.8837 45.2879 42.7128 45.8888L44.5784 47.2409L47.4804 49.3441Z" fill="#7653FA"/>
</svg>
